<svg xmlns="http://www.w3.org/2000/svg" xmlns:xlink="http://www.w3.org/1999/xlink" version="1.1" x="0px" y="0px" viewBox="0 0 1024 1280" style="enable-background:new 0 0 1024 1024;" xml:space="preserve"><g><polygon points="77.6,374.6 512.3,48.4 946.4,374.6 946.4,981.6 662.8,981.6 662.8,617.4 365.9,617.4 365.9,981.6    77.6,981.6  "/><g><path d="M87.7,391.9c14.4-10.8,28.9-21.7,43.3-32.5c34.7-26,69.3-52,104-78.1c41.8-31.4,83.6-62.7,125.4-94.1    c36.1-27.1,72.3-54.2,108.4-81.3c17.5-13.2,35.8-25.7,52.8-39.6c0.2-0.2,0.5-0.4,0.8-0.6c-6.7,0-13.5,0-20.2,0    c14.4,10.8,28.7,21.6,43.1,32.4c34.5,25.9,69,51.9,103.6,77.8c41.8,31.4,83.6,62.8,125.3,94.2c36.1,27.2,72.3,54.3,108.4,81.5    c17.6,13.2,34.9,27,52.9,39.7c0.2,0.2,0.5,0.4,0.7,0.6c-3.3-5.8-6.6-11.5-9.9-17.3c0,20.2,0,40.3,0,60.5c0,48.4,0,96.8,0,145.2    c0,58.5,0,117,0,175.5c0,50.3,0,100.6,0,150.9c0,24.6-0.9,49.3,0,73.9c0,0.3,0,0.7,0,1c6.7-6.7,13.3-13.3,20-20    c-31.9,0-63.7,0-95.6,0c-51,0-102,0-153,0c-11.7,0-23.3,0-35,0c6.7,6.7,13.3,13.3,20,20c0-12.1,0-24.2,0-36.4    c0-28.9,0-57.9,0-86.8c0-35,0-70,0-105c0-30.4,0-60.8,0-91.2c0-14.7,0.4-29.5,0-44.2c0-0.2,0-0.4,0-0.7c0-10.8-9.2-20-20-20    c-33.4,0-66.9,0-100.3,0c-53.3,0-106.6,0-159.9,0c-12.2,0-24.5,0-36.7,0c-10.8,0-20,9.2-20,20c0,12.1,0,24.2,0,36.4    c0,28.9,0,57.9,0,86.8c0,35,0,70,0,105c0,30.4,0,60.8,0,91.2c0,14.7-0.6,29.6,0,44.2c0,0.2,0,0.4,0,0.7c6.7-6.7,13.3-13.3,20-20    c-32.5,0-65,0-97.5,0c-51.8,0-103.5,0-155.3,0c-11.8,0-23.7,0-35.5,0c6.7,6.7,13.3,13.3,20,20c0-20.2,0-40.3,0-60.5    c0-48.4,0-96.8,0-145.2c0-58.5,0-117,0-175.5c0-50.3,0-100.6,0-150.9c0-24.6,0.5-49.3,0-73.9c0-0.3,0-0.7,0-1    c0-10.5-9.2-20.5-20-20c-10.8,0.5-20,8.8-20,20c0,20.2,0,40.3,0,60.5c0,48.4,0,96.8,0,145.2c0,58.5,0,117,0,175.5    c0,50.3,0,100.6,0,150.9c0,24.6-0.5,49.3,0,73.9c0,0.3,0,0.7,0,1c0,10.8,9.2,20,20,20c32.5,0,65,0,97.5,0c51.8,0,103.5,0,155.3,0    c11.8,0,23.7,0,35.5,0c10.8,0,20-9.2,20-20c0-12.1,0-24.2,0-36.4c0-28.9,0-57.9,0-86.8c0-35,0-70,0-105c0-30.4,0-60.8,0-91.2    c0-14.7,0.6-29.6,0-44.2c0-0.2,0-0.4,0-0.7c-6.7,6.7-13.3,13.3-20,20c33.4,0,66.9,0,100.3,0c53.3,0,106.6,0,159.9,0    c12.2,0,24.5,0,36.7,0c-6.7-6.7-13.3-13.3-20-20c0,12.1,0,24.2,0,36.4c0,28.9,0,57.9,0,86.8c0,35,0,70,0,105c0,30.4,0,60.8,0,91.2    c0,14.7-0.4,29.5,0,44.2c0,0.2,0,0.4,0,0.7c0,10.8,9.2,20,20,20c31.9,0,63.7,0,95.6,0c51,0,102,0,153,0c11.7,0,23.3,0,35,0    c10.8,0,20-9.2,20-20c0-18.3,0-36.6,0-54.9c0-44.6,0-89.2,0-133.7c0-55.4,0-110.7,0-166.1c0-50.6,0-101.3,0-151.9    c0-30.4,0-60.8,0-91.2c0-10.9,0.4-18.6-10.3-26.7c-5.7-4.3-11.4-8.6-17.1-12.9c-30.6-23-61.2-46-91.8-69    c-43.5-32.7-87-65.4-130.5-98.1c-40.9-30.7-81.8-61.5-122.7-92.2c-22.8-17.1-45.6-34.3-68.4-51.4c-1.1-0.8-2.1-1.6-3.2-2.4    c-5.1-3.8-15.1-3.8-20.2,0c-14.4,10.8-28.9,21.7-43.3,32.5c-34.7,26-69.3,52-104,78.1c-41.8,31.4-83.6,62.7-125.4,94.1    c-36.1,27.1-72.3,54.2-108.4,81.3c-17.6,13.2-35.2,26.4-52.8,39.6c-0.3,0.2-0.5,0.4-0.8,0.6c-8.3,6.3-13.5,17.6-7.2,27.4    C65.7,393,78.8,398.6,87.7,391.9z"/></g></g><text x="0" y="1039" fill="#000000" font-size="5px" font-weight="bold" font-family="'Helvetica Neue', Helvetica, Arial-Unicode, Arial, Sans-serif">Created by shashank singh</text><text x="0" y="1044" fill="#000000" font-size="5px" font-weight="bold" font-family="'Helvetica Neue', Helvetica, Arial-Unicode, Arial, Sans-serif">from the Noun Project</text></svg>