<svg xmlns="http://www.w3.org/2000/svg" xmlns:xlink="http://www.w3.org/1999/xlink" version="1.1" x="0px" y="0px" viewBox="0 0 1024 1280" style="enable-background:new 0 0 1024 1024;" xml:space="preserve"><g><g><path d="M92.8,400.5c14.4-10.8,28.9-21.7,43.3-32.5c34.7-26,69.3-52,104-78.1c41.8-31.4,83.6-62.7,125.4-94.1    c36.1-27.1,72.3-54.2,108.4-81.3c17.6-13.2,35.6-25.9,52.8-39.6c0.3-0.2,0.5-0.4,0.8-0.6c-10.1,0-20.2,0-30.3,0    c14.4,10.8,28.7,21.6,43.1,32.4c34.5,25.9,69,51.9,103.6,77.8c41.8,31.4,83.6,62.8,125.3,94.2c36.1,27.2,72.3,54.3,108.4,81.5    c17.6,13.2,35,26.9,52.9,39.7c0.2,0.2,0.5,0.4,0.7,0.6c-5-8.6-9.9-17.3-14.9-25.9c0,20.2,0,40.3,0,60.5c0,48.4,0,96.8,0,145.2    c0,58.5,0,117,0,175.5c0,50.3,0,100.6,0,150.9c0,24.6-0.6,49.3,0,73.9c0,0.3,0,0.7,0,1c10-10,20-20,30-30c-31.9,0-63.7,0-95.6,0    c-51,0-102,0-153,0c-11.7,0-23.3,0-35,0c10,10,20,20,30,30c0-12.1,0-24.2,0-36.4c0-28.9,0-57.9,0-86.8c0-35,0-70,0-105    c0-30.4,0-60.8,0-91.2c0-14.7,0.3-29.5,0-44.2c0-0.2,0-0.4,0-0.7c0-16.2-13.7-30-30-30c-33.4,0-66.9,0-100.3,0    c-53.3,0-106.6,0-159.9,0c-12.2,0-24.5,0-36.7,0c-16.2,0-30,13.7-30,30c0,12.1,0,24.2,0,36.4c0,28.9,0,57.9,0,86.8    c0,35,0,70,0,105c0,30.4,0,60.8,0,91.2c0,14.7-0.4,29.5,0,44.2c0,0.2,0,0.4,0,0.7c10-10,20-20,30-30c-32.5,0-65,0-97.5,0    c-51.8,0-103.5,0-155.3,0c-11.8,0-23.7,0-35.5,0c10,10,20,20,30,30c0-20.2,0-40.3,0-60.5c0-48.4,0-96.8,0-145.2    c0-58.5,0-117,0-175.5c0-50.3,0-100.6,0-150.9c0-24.6,0.4-49.3,0-73.9c0-0.3,0-0.7,0-1c0-15.7-13.8-30.7-30-30    c-16.3,0.7-30,13.2-30,30c0,20.2,0,40.3,0,60.5c0,48.4,0,96.8,0,145.2c0,58.5,0,117,0,175.5c0,50.3,0,100.6,0,150.9    c0,24.6-0.4,49.3,0,73.9c0,0.3,0,0.7,0,1c0,16.2,13.7,30,30,30c32.5,0,65,0,97.5,0c51.8,0,103.5,0,155.3,0c11.8,0,23.7,0,35.5,0    c16.2,0,30-13.7,30-30c0-12.1,0-24.2,0-36.4c0-28.9,0-57.9,0-86.8c0-35,0-70,0-105c0-30.4,0-60.8,0-91.2c0-14.7,0.4-29.5,0-44.2    c0-0.2,0-0.4,0-0.7c-10,10-20,20-30,30c33.4,0,66.9,0,100.3,0c53.3,0,106.6,0,159.9,0c12.2,0,24.5,0,36.7,0c-10-10-20-20-30-30    c0,12.1,0,24.2,0,36.4c0,28.9,0,57.9,0,86.8c0,35,0,70,0,105c0,30.4,0,60.8,0,91.2c0,14.7-0.3,29.5,0,44.2c0,0.2,0,0.4,0,0.7    c0,16.2,13.7,30,30,30c31.9,0,63.7,0,95.6,0c51,0,102,0,153,0c11.7,0,23.3,0,35,0c16.2,0,30-13.7,30-30c0-18.3,0-36.6,0-54.9    c0-44.6,0-89.2,0-133.7c0-55.4,0-110.7,0-166.1c0-50.6,0-101.3,0-151.9c0-30.4,0-60.8,0-91.2c0-2.6,0-5.2,0-7.9c0-0.4,0-0.8,0-1.2    c-0.4-11.9-6.2-19.4-15.2-26.2c-5.7-4.3-11.4-8.6-17.1-12.9c-30.6-23-61.2-46-91.8-69c-43.5-32.7-87-65.4-130.5-98.1    C680.8,137.8,639.9,107,599,76.3c-22.8-17.1-45.6-34.3-68.4-51.4c-1.1-0.8-2.1-1.6-3.2-2.4c-7.6-5.7-22.7-5.7-30.3,0    c-14.4,10.8-28.9,21.7-43.3,32.5c-34.7,26-69.3,52-104,78.1c-41.8,31.4-83.6,62.7-125.4,94.1c-36.1,27.1-72.3,54.2-108.4,81.3    c-17.6,13.2-35.2,26.4-52.8,39.6c-0.3,0.2-0.5,0.4-0.8,0.6c-6.5,4.9-11.5,9.8-13.8,17.9c-2,7.2-1.1,16.7,3,23.1    c4.1,6.4,10.3,12,17.9,13.8C77,405.2,86.5,405.3,92.8,400.5z"/></g></g><text x="0" y="1039" fill="#000000" font-size="5px" font-weight="bold" font-family="'Helvetica Neue', Helvetica, Arial-Unicode, Arial, Sans-serif">Created by shashank singh</text><text x="0" y="1044" fill="#000000" font-size="5px" font-weight="bold" font-family="'Helvetica Neue', Helvetica, Arial-Unicode, Arial, Sans-serif">from the Noun Project</text></svg>